0
SECTION
2
HEADER
9
$INSUNITS
70
4
0
ENDSEC
0
SECTION
2
TABLES
0
TABLE
2
LTYPE
0
LTYPE
72
65
70
64
2
CONTINUOUS
3
______
73
0
40
0
0
ENDTAB
0
TABLE
2
LAYER
0
ENDTAB
0
ENDSEC
0
SECTION
2
ENTITIES
0
LINE
8
0
10
90
20
-111
11
110
21
-111
0
LINE
8
0
10
111
20
-110
11
111
21
-108.275
0
LINE
8
0
10
89
20
-110
11
89
21
-39
0
LINE
8
0
10
105
20
-38
11
90
21
-38
0
LINE
8
0
10
122
20
-28.475
11
107
21
-28.475
0
LINE
8
0
10
106
20
-29.475
11
106
21
-37
0
LINE
8
0
10
139
20
-22.76
11
124
21
-22.76
0
LINE
8
0
10
123
20
-23.76
11
123
21
-27.475
0
LINE
8
0
10
162
20
-24.6175
11
162
21
-18.9975
0
LINE
8
0
10
161
20
-17.9975
11
141
21
-17.9975
0
LINE
8
0
10
140
20
-18.9975
11
140
21
-21.76
0
LINE
8
0
10
179
20
-26.5225
11
179
21
-26.3175
0
LINE
8
0
10
178.3
20
-25.6175
11
163
21
-25.6175
0
LINE
8
0
10
196
20
-31.8225
11
196
21
-28.5225
0
LINE
8
0
10
195
20
-27.5225
11
180
21
-27.5225
0
LINE
8
0
10
124
20
-115.475
11
144
21
-115.475
0
LINE
8
0
10
145
20
-114.475
11
145
21
-114.175
0
LINE
8
0
10
123
20
-108.275
11
123
21
-114.475
0
LINE
8
0
10
145.7
20
-113.475
11
156
21
-113.475
0
LINE
8
0
10
157.7
20
-115.475
11
173
21
-115.475
0
LINE
8
0
10
157
20
-114.475
11
157
21
-114.775
0
LINE
8
0
10
174.7
20
-117.475
11
188.5583046
21
-117.475
0
LINE
8
0
10
174
20
-116.475
11
174
21
-116.775
0
LINE
8
0
10
208.8926787
20
-130.3217951
11
217.7305647
21
-103.1215788
0
LINE
8
0
10
187.9694353
20
-123.5234212
11
189.5093611
21
-118.784017
0
ARC
8
0
10
110
20
-110
40
1
50
270
51
0
0
ARC
8
0
10
124
20
-114.475
40
1
50
180
51
270
0
ARC
8
0
10
144
20
-114.475
40
1
50
270
51
0
0
ARC
8
0
10
156
20
-114.475
40
1
50
0
51
90
0
ARC
8
0
10
173
20
-116.475
40
1
50
0
51
90
0
ARC
8
0
10
188.5583046
20
-118.475
40
1
50
341.9999994
51
90
0
ARC
8
0
10
195
20
-28.5225
40
1
50
0
51
90
0
ARC
8
0
10
180
20
-26.5225
40
1
50
180
51
270
0
ARC
8
0
10
163
20
-24.6175
40
1
50
180
51
270
0
ARC
8
0
10
161
20
-18.9975
40
1
50
0
51
90
0
ARC
8
0
10
141
20
-18.9975
40
1
50
90
51
180
0
ARC
8
0
10
139
20
-21.76
40
1
50
270
51
0
0
ARC
8
0
10
124
20
-23.76
40
1
50
90
51
180
0
ARC
8
0
10
122
20
-27.475
40
1
50
270
51
0
0
ARC
8
0
10
107
20
-29.475
40
1
50
90
51
180
0
ARC
8
0
10
105
20
-37
40
1
50
270
51
0
0
ARC
8
0
10
90
20
-39
40
1
50
90
51
180
0
ARC
8
0
10
90
20
-110
40
1
50
180
51
270
0
LINE
8
0
10
188.418863
20
-124.4054727
11
208.0106272
21
-130.7712228
0
LINE
8
0
10
217.281137
20
-102.2395273
11
214.9836881
21
-101.4930409
0
ARC
8
0
10
145.7
20
-114.175
40
0.7
50
90
51
180
0
ARC
8
0
10
157.7
20
-114.775
40
0.7
50
180
51
270
0
ARC
8
0
10
174.7
20
-116.775
40
0.7
50
180
51
270
0
ARC
8
0
10
188.6351749
20
-123.7397331
40
0.7
50
161.9999994
51
251.9999994
0
ARC
8
0
10
208.2269391
20
-130.1054832
40
0.7
50
251.9999994
51
341.9999994
0
ARC
8
0
10
217.0648251
20
-102.9052669
40
0.7
50
341.9999994
51
71.9999994
0
ARC
8
0
10
178.3
20
-26.3175
40
0.7
50
0
51
90
0
LINE
8
0
10
214.5
20
-100.8273013
11
214.5
21
-33.2225
0
LINE
8
0
10
213.8
20
-32.5225
11
196.7
21
-32.5225
0
ARC
8
0
10
215.2
20
-100.8273013
40
0.7
50
180
51
251.9999994
0
ARC
8
0
10
213.8
20
-33.2225
40
0.7
50
0
51
90
0
ARC
8
0
10
196.7
20
-31.8225
40
0.7
50
180
51
270
0
LINE
8
0
10
111.7
20
-107.575
11
122.3
21
-107.575
0
ARC
8
0
10
111.7
20
-108.275
40
0.7
50
90
51
180
0
ARC
8
0
10
122.3
20
-108.275
40
0.7
50
0
51
90
0
ENDSEC
0
EOF