0
SECTION
2
HEADER
9
$INSUNITS
70
4
0
ENDSEC
0
SECTION
2
TABLES
0
TABLE
2
LTYPE
0
LTYPE
72
65
70
64
2
CONTINUOUS
3
______
73
0
40
0
0
ENDTAB
0
TABLE
2
LAYER
0
ENDTAB
0
ENDSEC
0
SECTION
2
ENTITIES
0
LINE
8
0
10
92.7
20
-108
11
107.3
21
-108
0
LINE
8
0
10
108
20
-107.3
11
108
21
-92.7
0
LINE
8
0
10
107.3
20
-92
11
92.7
21
-92
0
LINE
8
0
10
92
20
-92.7
11
92
21
-107.3
0
LINE
8
0
10
92.7
20
-91
11
107.3
21
-91
0
LINE
8
0
10
108
20
-90.3
11
108
21
-75.7
0
LINE
8
0
10
107.3
20
-75
11
92.7
21
-75
0
LINE
8
0
10
92
20
-75.7
11
92
21
-90.3
0
LINE
8
0
10
92.7
20
-74
11
107.3
21
-74
0
LINE
8
0
10
108
20
-73.3
11
108
21
-58.7
0
LINE
8
0
10
107.3
20
-58
11
92.7
21
-58
0
LINE
8
0
10
92
20
-58.7
11
92
21
-73.3
0
LINE
8
0
10
92.7
20
-57
11
107.3
21
-57
0
LINE
8
0
10
108
20
-56.3
11
108
21
-41.7
0
LINE
8
0
10
107.3
20
-41
11
92.7
21
-41
0
LINE
8
0
10
92
20
-41.7
11
92
21
-56.3
0
LINE
8
0
10
109.7
20
-98.475
11
124.3
21
-98.475
0
LINE
8
0
10
125
20
-97.775
11
125
21
-83.175
0
LINE
8
0
10
124.3
20
-82.475
11
109.7
21
-82.475
0
LINE
8
0
10
109
20
-83.175
11
109
21
-97.775
0
LINE
8
0
10
109.7
20
-81.475
11
124.3
21
-81.475
0
LINE
8
0
10
125
20
-80.775
11
125
21
-66.175
0
LINE
8
0
10
124.3
20
-65.475
11
109.7
21
-65.475
0
LINE
8
0
10
109
20
-66.175
11
109
21
-80.775
0
LINE
8
0
10
109.7
20
-64.475
11
124.3
21
-64.475
0
LINE
8
0
10
125
20
-63.775
11
125
21
-49.175
0
LINE
8
0
10
124.3
20
-48.475
11
109.7
21
-48.475
0
LINE
8
0
10
109
20
-49.175
11
109
21
-63.775
0
LINE
8
0
10
109.7
20
-47.475
11
124.3
21
-47.475
0
LINE
8
0
10
125
20
-46.775
11
125
21
-32.175
0
LINE
8
0
10
124.3
20
-31.475
11
109.7
21
-31.475
0
LINE
8
0
10
109
20
-32.175
11
109
21
-46.775
0
LINE
8
0
10
126.7
20
-92.76
11
141.3
21
-92.76
0
LINE
8
0
10
142
20
-92.06
11
142
21
-77.46
0
LINE
8
0
10
141.3
20
-76.76
11
126.7
21
-76.76
0
LINE
8
0
10
126
20
-77.46
11
126
21
-92.06
0
LINE
8
0
10
126.7
20
-75.76
11
141.3
21
-75.76
0
LINE
8
0
10
142
20
-75.06
11
142
21
-60.46
0
LINE
8
0
10
141.3
20
-59.76
11
126.7
21
-59.76
0
LINE
8
0
10
126
20
-60.46
11
126
21
-75.06
0
LINE
8
0
10
126.7
20
-58.76
11
141.3
21
-58.76
0
LINE
8
0
10
142
20
-58.06
11
142
21
-43.46
0
LINE
8
0
10
141.3
20
-42.76
11
126.7
21
-42.76
0
LINE
8
0
10
126
20
-43.46
11
126
21
-58.06
0
LINE
8
0
10
126.7
20
-41.76
11
141.3
21
-41.76
0
LINE
8
0
10
142
20
-41.06
11
142
21
-26.46
0
LINE
8
0
10
141.3
20
-25.76
11
126.7
21
-25.76
0
LINE
8
0
10
126
20
-26.46
11
126
21
-41.06
0
LINE
8
0
10
143.7
20
-87.9975
11
158.3
21
-87.9975
0
LINE
8
0
10
159
20
-87.2975
11
159
21
-72.6975
0
LINE
8
0
10
158.3
20
-71.9975
11
143.7
21
-71.9975
0
LINE
8
0
10
143
20
-72.6975
11
143
21
-87.2975
0
LINE
8
0
10
143.7
20
-70.9975
11
158.3
21
-70.9975
0
LINE
8
0
10
159
20
-70.2975
11
159
21
-55.6975
0
LINE
8
0
10
158.3
20
-54.9975
11
143.7
21
-54.9975
0
LINE
8
0
10
143
20
-55.6975
11
143
21
-70.2975
0
LINE
8
0
10
143.7
20
-53.9975
11
158.3
21
-53.9975
0
LINE
8
0
10
159
20
-53.2975
11
159
21
-38.6975
0
LINE
8
0
10
158.3
20
-37.9975
11
143.7
21
-37.9975
0
LINE
8
0
10
143
20
-38.6975
11
143
21
-53.2975
0
LINE
8
0
10
143.7
20
-36.9975
11
158.3
21
-36.9975
0
LINE
8
0
10
159
20
-36.2975
11
159
21
-21.6975
0
LINE
8
0
10
158.3
20
-20.9975
11
143.7
21
-20.9975
0
LINE
8
0
10
143
20
-21.6975
11
143
21
-36.2975
0
LINE
8
0
10
160.7
20
-95.6175
11
175.3
21
-95.6175
0
LINE
8
0
10
176
20
-94.9175
11
176
21
-80.3175
0
LINE
8
0
10
175.3
20
-79.6175
11
160.7
21
-79.6175
0
LINE
8
0
10
160
20
-80.3175
11
160
21
-94.9175
0
LINE
8
0
10
160.7
20
-78.6175
11
175.3
21
-78.6175
0
LINE
8
0
10
176
20
-77.9175
11
176
21
-63.3175
0
LINE
8
0
10
175.3
20
-62.6175
11
160.7
21
-62.6175
0
LINE
8
0
10
160
20
-63.3175
11
160
21
-77.9175
0
LINE
8
0
10
160.7
20
-61.6175
11
175.3
21
-61.6175
0
LINE
8
0
10
176
20
-60.9175
11
176
21
-46.3175
0
LINE
8
0
10
175.3
20
-45.6175
11
160.7
21
-45.6175
0
LINE
8
0
10
160
20
-46.3175
11
160
21
-60.9175
0
LINE
8
0
10
160.7
20
-44.6175
11
175.3
21
-44.6175
0
LINE
8
0
10
176
20
-43.9175
11
176
21
-29.3175
0
LINE
8
0
10
175.3
20
-28.6175
11
160.7
21
-28.6175
0
LINE
8
0
10
160
20
-29.3175
11
160
21
-43.9175
0
LINE
8
0
10
177.7
20
-97.5225
11
192.3
21
-97.5225
0
LINE
8
0
10
193
20
-96.8225
11
193
21
-82.2225
0
LINE
8
0
10
192.3
20
-81.5225
11
177.7
21
-81.5225
0
LINE
8
0
10
177
20
-82.2225
11
177
21
-96.8225
0
LINE
8
0
10
177.7
20
-80.5225
11
192.3
21
-80.5225
0
LINE
8
0
10
193
20
-79.8225
11
193
21
-65.2225
0
LINE
8
0
10
192.3
20
-64.5225
11
177.7
21
-64.5225
0
LINE
8
0
10
177
20
-65.2225
11
177
21
-79.8225
0
LINE
8
0
10
177.7
20
-63.5225
11
192.3
21
-63.5225
0
LINE
8
0
10
193
20
-62.8225
11
193
21
-48.2225
0
LINE
8
0
10
192.3
20
-47.5225
11
177.7
21
-47.5225
0
LINE
8
0
10
177
20
-48.2225
11
177
21
-62.8225
0
LINE
8
0
10
177.7
20
-46.5225
11
192.3
21
-46.5225
0
LINE
8
0
10
193
20
-45.8225
11
193
21
-31.2225
0
LINE
8
0
10
192.3
20
-30.5225
11
177.7
21
-30.5225
0
LINE
8
0
10
177
20
-31.2225
11
177
21
-45.8225
0
LINE
8
0
10
126.7
20
-112.475
11
141.3
21
-112.475
0
LINE
8
0
10
142
20
-111.775
11
142
21
-97.175
0
LINE
8
0
10
141.3
20
-96.475
11
126.7
21
-96.475
0
LINE
8
0
10
126
20
-97.175
11
126
21
-111.775
0
LINE
8
0
10
143.7
20
-110.475
11
158.3
21
-110.475
0
LINE
8
0
10
159
20
-109.775
11
159
21
-95.175
0
LINE
8
0
10
158.3
20
-94.475
11
143.7
21
-94.475
0
LINE
8
0
10
143
20
-95.175
11
143
21
-109.775
0
LINE
8
0
10
160.7
20
-112.475
11
175.3
21
-112.475
0
LINE
8
0
10
176
20
-111.775
11
176
21
-97.175
0
LINE
8
0
10
175.3
20
-96.475
11
160.7
21
-96.475
0
LINE
8
0
10
160
20
-97.175
11
160
21
-111.775
0
LINE
8
0
10
177.7
20
-114.475
11
192.3
21
-114.475
0
LINE
8
0
10
193
20
-113.775
11
193
21
-99.175
0
LINE
8
0
10
192.3
20
-98.475
11
177.7
21
-98.475
0
LINE
8
0
10
177
20
-99.175
11
177
21
-113.775
0
LINE
8
0
10
206.9665601
20
-126.5415746
11
213.9503442
21
-105.0476974
0
LINE
8
0
10
191.7496558
20
-121.5973026
11
198.7334399
21
-100.1034254
0
LINE
8
0
10
192.1990835
20
-122.4793541
11
206.0845086
21
-126.9910023
0
LINE
8
0
10
213.5009165
20
-104.1656459
11
199.6154914
21
-99.6539977
0
LINE
8
0
10
195.7
20
-67.3125
11
212.3
21
-67.3125
0
LINE
8
0
10
213
20
-66.6125
11
213
21
-34.9325
0
LINE
8
0
10
212.3
20
-34.2325
11
195.7
21
-34.2325
0
LINE
8
0
10
195
20
-34.9325
11
195
21
-66.6125
0
ARC
8
0
10
212.3
20
-66.6125
40
0.7
50
270
51
0
0
ARC
8
0
10
212.3
20
-34.9325
40
0.7
50
0
51
90
0
ARC
8
0
10
195.7
20
-34.9325
40
0.7
50
90
51
180
0
ARC
8
0
10
195.7
20
-66.6125
40
0.7
50
180
51
270
0
ARC
8
0
10
213.2846046
20
-104.8313855
40
0.7
50
341.9999994
51
71.9999994
0
ARC
8
0
10
199.3991795
20
-100.3197373
40
0.7
50
71.9999994
51
161.9999994
0
ARC
8
0
10
192.4153954
20
-121.8136145
40
0.7
50
161.9999994
51
251.9999994
0
ARC
8
0
10
206.3008205
20
-126.3252627
40
0.7
50
251.9999994
51
341.9999994
0
ARC
8
0
10
107.3
20
-107.3
40
0.7
50
270
51
0
0
ARC
8
0
10
107.3
20
-92.7
40
0.7
50
0
51
90
0
ARC
8
0
10
92.7
20
-92.7
40
0.7
50
90
51
180
0
ARC
8
0
10
92.7
20
-107.3
40
0.7
50
180
51
270
0
ARC
8
0
10
107.3
20
-90.3
40
0.7
50
270
51
0
0
ARC
8
0
10
107.3
20
-75.7
40
0.7
50
0
51
90
0
ARC
8
0
10
92.7
20
-75.7
40
0.7
50
90
51
180
0
ARC
8
0
10
92.7
20
-90.3
40
0.7
50
180
51
270
0
ARC
8
0
10
107.3
20
-73.3
40
0.7
50
270
51
0
0
ARC
8
0
10
107.3
20
-58.7
40
0.7
50
0
51
90
0
ARC
8
0
10
92.7
20
-58.7
40
0.7
50
90
51
180
0
ARC
8
0
10
92.7
20
-73.3
40
0.7
50
180
51
270
0
ARC
8
0
10
107.3
20
-56.3
40
0.7
50
270
51
0
0
ARC
8
0
10
107.3
20
-41.7
40
0.7
50
0
51
90
0
ARC
8
0
10
92.7
20
-41.7
40
0.7
50
90
51
180
0
ARC
8
0
10
92.7
20
-56.3
40
0.7
50
180
51
270
0
ARC
8
0
10
124.3
20
-97.775
40
0.7
50
270
51
0
0
ARC
8
0
10
124.3
20
-83.175
40
0.7
50
0
51
90
0
ARC
8
0
10
109.7
20
-83.175
40
0.7
50
90
51
180
0
ARC
8
0
10
109.7
20
-97.775
40
0.7
50
180
51
270
0
ARC
8
0
10
124.3
20
-80.775
40
0.7
50
270
51
0
0
ARC
8
0
10
124.3
20
-66.175
40
0.7
50
0
51
90
0
ARC
8
0
10
109.7
20
-66.175
40
0.7
50
90
51
180
0
ARC
8
0
10
109.7
20
-80.775
40
0.7
50
180
51
270
0
ARC
8
0
10
124.3
20
-63.775
40
0.7
50
270
51
0
0
ARC
8
0
10
124.3
20
-49.175
40
0.7
50
0
51
90
0
ARC
8
0
10
109.7
20
-49.175
40
0.7
50
90
51
180
0
ARC
8
0
10
109.7
20
-63.775
40
0.7
50
180
51
270
0
ARC
8
0
10
124.3
20
-46.775
40
0.7
50
270
51
0
0
ARC
8
0
10
124.3
20
-32.175
40
0.7
50
0
51
90
0
ARC
8
0
10
109.7
20
-32.175
40
0.7
50
90
51
180
0
ARC
8
0
10
109.7
20
-46.775
40
0.7
50
180
51
270
0
ARC
8
0
10
141.3
20
-92.06
40
0.7
50
270
51
0
0
ARC
8
0
10
141.3
20
-77.46
40
0.7
50
0
51
90
0
ARC
8
0
10
126.7
20
-77.46
40
0.7
50
90
51
180
0
ARC
8
0
10
126.7
20
-92.06
40
0.7
50
180
51
270
0
ARC
8
0
10
141.3
20
-75.06
40
0.7
50
270
51
0
0
ARC
8
0
10
141.3
20
-60.46
40
0.7
50
0
51
90
0
ARC
8
0
10
126.7
20
-60.46
40
0.7
50
90
51
180
0
ARC
8
0
10
126.7
20
-75.06
40
0.7
50
180
51
270
0
ARC
8
0
10
141.3
20
-58.06
40
0.7
50
270
51
0
0
ARC
8
0
10
141.3
20
-43.46
40
0.7
50
0
51
90
0
ARC
8
0
10
126.7
20
-43.46
40
0.7
50
90
51
180
0
ARC
8
0
10
126.7
20
-58.06
40
0.7
50
180
51
270
0
ARC
8
0
10
141.3
20
-41.06
40
0.7
50
270
51
0
0
ARC
8
0
10
141.3
20
-26.46
40
0.7
50
0
51
90
0
ARC
8
0
10
126.7
20
-26.46
40
0.7
50
90
51
180
0
ARC
8
0
10
126.7
20
-41.06
40
0.7
50
180
51
270
0
ARC
8
0
10
158.3
20
-87.2975
40
0.7
50
270
51
0
0
ARC
8
0
10
158.3
20
-72.6975
40
0.7
50
0
51
90
0
ARC
8
0
10
143.7
20
-72.6975
40
0.7
50
90
51
180
0
ARC
8
0
10
143.7
20
-87.2975
40
0.7
50
180
51
270
0
ARC
8
0
10
158.3
20
-70.2975
40
0.7
50
270
51
0
0
ARC
8
0
10
158.3
20
-55.6975
40
0.7
50
0
51
90
0
ARC
8
0
10
143.7
20
-55.6975
40
0.7
50
90
51
180
0
ARC
8
0
10
143.7
20
-70.2975
40
0.7
50
180
51
270
0
ARC
8
0
10
158.3
20
-53.2975
40
0.7
50
270
51
0
0
ARC
8
0
10
158.3
20
-38.6975
40
0.7
50
0
51
90
0
ARC
8
0
10
143.7
20
-38.6975
40
0.7
50
90
51
180
0
ARC
8
0
10
143.7
20
-53.2975
40
0.7
50
180
51
270
0
ARC
8
0
10
158.3
20
-36.2975
40
0.7
50
270
51
0
0
ARC
8
0
10
158.3
20
-21.6975
40
0.7
50
0
51
90
0
ARC
8
0
10
143.7
20
-21.6975
40
0.7
50
90
51
180
0
ARC
8
0
10
143.7
20
-36.2975
40
0.7
50
180
51
270
0
ARC
8
0
10
175.3
20
-94.9175
40
0.7
50
270
51
0
0
ARC
8
0
10
175.3
20
-80.3175
40
0.7
50
0
51
90
0
ARC
8
0
10
160.7
20
-80.3175
40
0.7
50
90
51
180
0
ARC
8
0
10
160.7
20
-94.9175
40
0.7
50
180
51
270
0
ARC
8
0
10
175.3
20
-77.9175
40
0.7
50
270
51
0
0
ARC
8
0
10
175.3
20
-63.3175
40
0.7
50
0
51
90
0
ARC
8
0
10
160.7
20
-63.3175
40
0.7
50
90
51
180
0
ARC
8
0
10
160.7
20
-77.9175
40
0.7
50
180
51
270
0
ARC
8
0
10
175.3
20
-60.9175
40
0.7
50
270
51
0
0
ARC
8
0
10
175.3
20
-46.3175
40
0.7
50
0
51
90
0
ARC
8
0
10
160.7
20
-46.3175
40
0.7
50
90
51
180
0
ARC
8
0
10
160.7
20
-60.9175
40
0.7
50
180
51
270
0
ARC
8
0
10
175.3
20
-43.9175
40
0.7
50
270
51
0
0
ARC
8
0
10
175.3
20
-29.3175
40
0.7
50
0
51
90
0
ARC
8
0
10
160.7
20
-29.3175
40
0.7
50
90
51
180
0
ARC
8
0
10
160.7
20
-43.9175
40
0.7
50
180
51
270
0
ARC
8
0
10
192.3
20
-96.8225
40
0.7
50
270
51
0
0
ARC
8
0
10
192.3
20
-82.2225
40
0.7
50
0
51
90
0
ARC
8
0
10
177.7
20
-82.2225
40
0.7
50
90
51
180
0
ARC
8
0
10
177.7
20
-96.8225
40
0.7
50
180
51
270
0
ARC
8
0
10
192.3
20
-79.8225
40
0.7
50
270
51
0
0
ARC
8
0
10
192.3
20
-65.2225
40
0.7
50
0
51
90
0
ARC
8
0
10
177.7
20
-65.2225
40
0.7
50
90
51
180
0
ARC
8
0
10
177.7
20
-79.8225
40
0.7
50
180
51
270
0
ARC
8
0
10
192.3
20
-62.8225
40
0.7
50
270
51
0
0
ARC
8
0
10
192.3
20
-48.2225
40
0.7
50
0
51
90
0
ARC
8
0
10
177.7
20
-48.2225
40
0.7
50
90
51
180
0
ARC
8
0
10
177.7
20
-62.8225
40
0.7
50
180
51
270
0
ARC
8
0
10
192.3
20
-45.8225
40
0.7
50
270
51
0
0
ARC
8
0
10
192.3
20
-31.2225
40
0.7
50
0
51
90
0
ARC
8
0
10
177.7
20
-31.2225
40
0.7
50
90
51
180
0
ARC
8
0
10
177.7
20
-45.8225
40
0.7
50
180
51
270
0
ARC
8
0
10
141.3
20
-111.775
40
0.7
50
270
51
0
0
ARC
8
0
10
141.3
20
-97.175
40
0.7
50
0
51
90
0
ARC
8
0
10
126.7
20
-97.175
40
0.7
50
90
51
180
0
ARC
8
0
10
126.7
20
-111.775
40
0.7
50
180
51
270
0
ARC
8
0
10
158.3
20
-109.775
40
0.7
50
270
51
0
0
ARC
8
0
10
158.3
20
-95.175
40
0.7
50
0
51
90
0
ARC
8
0
10
143.7
20
-95.175
40
0.7
50
90
51
180
0
ARC
8
0
10
143.7
20
-109.775
40
0.7
50
180
51
270
0
ARC
8
0
10
175.3
20
-111.775
40
0.7
50
270
51
0
0
ARC
8
0
10
175.3
20
-97.175
40
0.7
50
0
51
90
0
ARC
8
0
10
160.7
20
-97.175
40
0.7
50
90
51
180
0
ARC
8
0
10
160.7
20
-111.775
40
0.7
50
180
51
270
0
ARC
8
0
10
192.3
20
-113.775
40
0.7
50
270
51
0
0
ARC
8
0
10
192.3
20
-99.175
40
0.7
50
0
51
90
0
ARC
8
0
10
177.7
20
-99.175
40
0.7
50
90
51
180
0
ARC
8
0
10
177.7
20
-113.775
40
0.7
50
180
51
270
0
LINE
8
0
10
197.7
20
-95.5225
11
208.3
21
-95.5225
0
LINE
8
0
10
209
20
-94.8225
11
209
21
-84.2225
0
LINE
8
0
10
208.3
20
-83.5225
11
197.7
21
-83.5225
0
LINE
8
0
10
197
20
-84.2225
11
197
21
-94.8225
0
ARC
8
0
10
208.3
20
-94.8225
40
0.7
50
270
51
0
0
ARC
8
0
10
208.3
20
-84.2225
40
0.7
50
0
51
90
0
ARC
8
0
10
197.7
20
-84.2225
40
0.7
50
90
51
180
0
ARC
8
0
10
197.7
20
-94.8225
40
0.7
50
180
51
270
0
ENDSEC
0
EOF