0
SECTION
2
HEADER
9
$INSUNITS
70
4
0
ENDSEC
0
SECTION
2
TABLES
0
TABLE
2
LTYPE
0
LTYPE
72
65
70
64
2
CONTINUOUS
3
______
73
0
40
0
0
ENDTAB
0
TABLE
2
LAYER
0
ENDTAB
0
ENDSEC
0
SECTION
2
ENTITIES
0
LINE
8
0
10
89
20
-112
11
111
21
-112
0
LINE
8
0
10
112
20
-111
11
112
21
-109.275
0
LINE
8
0
10
88
20
-111
11
88
21
-38
0
LINE
8
0
10
104
20
-37
11
89
21
-37
0
LINE
8
0
10
121
20
-27.475
11
106
21
-27.475
0
LINE
8
0
10
105
20
-28.475
11
105
21
-36
0
LINE
8
0
10
138
20
-21.76
11
123
21
-21.76
0
LINE
8
0
10
122
20
-22.76
11
122
21
-26.475
0
LINE
8
0
10
163
20
-23.6175
11
163
21
-17.9975
0
LINE
8
0
10
162
20
-16.9975
11
140
21
-16.9975
0
LINE
8
0
10
139
20
-17.9975
11
139
21
-20.76
0
LINE
8
0
10
180
20
-25.5225
11
180
21
-25.3175
0
LINE
8
0
10
179.3
20
-24.6175
11
164
21
-24.6175
0
LINE
8
0
10
197
20
-30.8225
11
197
21
-27.5225
0
LINE
8
0
10
196
20
-26.5225
11
181
21
-26.5225
0
LINE
8
0
10
123
20
-116.475
11
145
21
-116.475
0
LINE
8
0
10
146
20
-115.475
11
146
21
-115.175
0
LINE
8
0
10
122
20
-109.275
11
122
21
-115.475
0
LINE
8
0
10
146.7
20
-114.475
11
155
21
-114.475
0
LINE
8
0
10
156.7
20
-116.475
11
172
21
-116.475
0
LINE
8
0
10
156
20
-115.475
11
156
21
-115.775
0
LINE
8
0
10
173.7
20
-118.475
11
187.1819227
21
-118.475
0
LINE
8
0
10
173
20
-117.475
11
173
21
-117.775
0
LINE
8
0
10
209.5347182
20
-131.5818686
11
218.9906382
21
-102.4795393
0
LINE
8
0
10
186.7093618
20
-124.1654607
11
188.1329792
21
-119.784017
0
ARC
8
0
10
111
20
-111
40
1
50
270
51
0
0
ARC
8
0
10
123
20
-115.475
40
1
50
180
51
270
0
ARC
8
0
10
145
20
-115.475
40
1
50
270
51
0
0
ARC
8
0
10
155
20
-115.475
40
1
50
0
51
90
0
ARC
8
0
10
172
20
-117.475
40
1
50
0
51
90
0
ARC
8
0
10
187.1819227
20
-119.475
40
1
50
342.0256252
51
90
0
ARC
8
0
10
196
20
-27.5225
40
1
50
0
51
90
0
ARC
8
0
10
181
20
-25.5225
40
1
50
180
51
270
0
ARC
8
0
10
164
20
-23.6175
40
1
50
180
51
270
0
ARC
8
0
10
162
20
-17.9975
40
1
50
0
51
90
0
ARC
8
0
10
140
20
-17.9975
40
1
50
90
51
180
0
ARC
8
0
10
138
20
-20.76
40
1
50
270
51
0
0
ARC
8
0
10
123
20
-22.76
40
1
50
90
51
180
0
ARC
8
0
10
121
20
-26.475
40
1
50
270
51
0
0
ARC
8
0
10
106
20
-28.475
40
1
50
90
51
180
0
ARC
8
0
10
104
20
-36
40
1
50
270
51
0
0
ARC
8
0
10
89
20
-38
40
1
50
90
51
180
0
ARC
8
0
10
89
20
-111
40
1
50
180
51
270
0
LINE
8
0
10
187.1587895
20
-125.0475122
11
208.6526667
21
-132.0312963
0
LINE
8
0
10
218.5412105
20
-101.5974878
11
215.9836881
21
-100.7664984
0
LINE
8
0
10
188.1331173
20
-119.7835916
11
188.1329792
21
-119.784017
0
ARC
8
0
10
146.7
20
-115.175
40
0.7
50
90
51
180
0
ARC
8
0
10
156.7
20
-115.775
40
0.7
50
180
51
270
0
ARC
8
0
10
173.7
20
-117.775
40
0.7
50
180
51
270
0
ARC
8
0
10
187.3751014
20
-124.3817726
40
0.7
50
161.9999994
51
251.9999994
0
ARC
8
0
10
208.8689786
20
-131.3655567
40
0.7
50
251.9999994
51
341.9999994
0
ARC
8
0
10
218.3248986
20
-102.2632274
40
0.7
50
341.9999994
51
71.9999994
0
ARC
8
0
10
179.3
20
-25.3175
40
0.7
50
0
51
90
0
LINE
8
0
10
215.5
20
-100.1007588
11
215.5
21
-32.2225
0
LINE
8
0
10
214.8
20
-31.5225
11
197.7
21
-31.5225
0
ARC
8
0
10
216.2
20
-100.1007588
40
0.7
50
180
51
251.9999994
0
ARC
8
0
10
214.8
20
-32.2225
40
0.7
50
0
51
90
0
ARC
8
0
10
197.7
20
-30.8225
40
0.7
50
180
51
270
0
LINE
8
0
10
112.7
20
-108.575
11
121.3
21
-108.575
0
ARC
8
0
10
112.7
20
-109.275
40
0.7
50
90
51
180
0
ARC
8
0
10
121.3
20
-109.275
40
0.7
50
0
51
90
0
ENDSEC
0
EOF